<?xml version="1.0" standalone="no"?>
<!DOCTYPE svg PUBLIC "-//W3C//DTD SVG 20010904//EN"
 "http://www.w3.org/TR/2001/REC-SVG-20010904/DTD/svg10.dtd">
<svg version="1.0" xmlns="http://www.w3.org/2000/svg"
 width="300.000000pt" height="232.000000pt" viewBox="0 0 300.000000 232.000000"
 preserveAspectRatio="xMidYMid meet">
<metadata>
Created by potrace 1.10, written by Peter Selinger 2001-2011
</metadata>
<g transform="translate(0.000000,232.000000) scale(0.100000,-0.100000)"
fill="#000000" stroke="none">
<path d="M1395 2193 c-64 -26 -172 -101 -210 -146 -20 -23 -47 -65 -61 -93
-38 -77 -66 -260 -48 -308 12 -31 19 -15 16 34 -7 99 44 280 97 342 49 58 152
115 220 123 13 1 27 8 31 15 6 9 9 9 13 -1 4 -9 6 -8 6 5 1 12 6 16 16 13 8
-4 17 -2 20 4 4 5 12 6 18 2 7 -4 21 -9 32 -10 11 -2 24 -9 30 -15 7 -8 5 -9
-7 -5 -10 4 -18 2 -18 -3 0 -6 10 -10 22 -10 13 0 53 -12 90 -26 67 -26 133
-78 176 -140 49 -71 82 -315 47 -344 -20 -17 -19 -24 8 -35 20 -9 22 -18 25
-89 2 -46 -2 -84 -8 -90 -5 -5 -10 -18 -10 -29 0 -10 -13 -30 -29 -45 -17 -15
-45 -59 -65 -98 -19 -38 -42 -76 -50 -83 -9 -8 -16 -24 -16 -37 0 -13 -5 -23
-11 -21 -6 1 -14 -4 -16 -10 -3 -7 0 -13 6 -13 7 0 11 -23 10 -61 -2 -56 1
-64 30 -92 21 -22 42 -32 64 -33 17 -1 39 -4 47 -7 8 -3 27 -8 42 -11 15 -3
30 -15 33 -27 4 -12 12 -18 21 -15 7 3 16 1 18 -3 12 -18 119 -61 203 -81 104
-25 173 -49 173 -61 0 -5 6 -9 13 -9 6 0 37 -26 67 -58 44 -46 62 -76 88 -145
17 -48 32 -94 32 -102 0 -9 4 -23 9 -33 5 -9 26 -71 46 -137 20 -66 41 -124
45 -130 4 -5 11 -25 15 -43 4 -18 13 -32 21 -32 19 0 18 7 -16 99 -16 44 -50
148 -75 232 -96 315 -153 379 -390 439 -103 25 -275 100 -275 118 0 12 -62 32
-101 32 -19 1 -45 9 -58 21 -22 18 -24 24 -18 97 4 71 9 85 50 152 26 40 49
85 52 99 4 17 16 31 34 38 27 10 29 14 41 109 16 127 12 158 -18 162 -18 3
-22 8 -16 20 14 30 16 142 4 210 -23 136 -112 251 -255 332 -71 40 -87 45
-150 47 -47 2 -83 -2 -110 -14z"/>
<path d="M1258 1801 c-53 -25 -59 -35 -17 -27 33 6 142 -13 168 -29 22 -13 10
8 -19 35 -16 15 -30 24 -30 19 0 -5 -8 -9 -17 -9 -15 0 -16 2 -3 10 9 6 10 10
3 10 -6 0 -15 -5 -18 -10 -4 -6 -11 -8 -16 -4 -5 3 -7 10 -4 15 8 13 -4 10
-47 -10z"/>
<path d="M1650 1795 c12 -14 11 -16 -11 -10 -17 4 -32 0 -47 -13 -27 -24 -29
-36 -3 -22 11 5 36 10 55 10 20 0 36 5 36 10 0 6 26 11 58 11 31 1 47 4 35 6
-13 2 -23 7 -23 11 0 4 -26 9 -57 10 -51 3 -55 2 -43 -13z"/>
<path d="M1235 1716 c-27 -12 -66 -46 -52 -46 4 0 23 11 43 25 41 28 86 32
124 10 29 -17 40 -18 40 -6 0 13 -57 31 -94 31 -17 -1 -45 -7 -61 -14z"/>
<path d="M1631 1719 c-13 -5 -22 -12 -19 -14 3 -3 18 -1 34 5 38 15 83 5 130
-26 l39 -26 -23 24 c-37 40 -111 57 -161 37z"/>
<path d="M1218 1675 c-26 -14 -49 -29 -53 -35 -6 -10 -1 -9 50 11 17 7 43 11
58 10 15 -2 34 2 41 8 9 8 22 8 40 1 33 -12 34 3 1 18 -39 18 -85 14 -137 -13z"/>
<path d="M1613 1676 l-43 -25 -15 22 c-8 12 -15 16 -15 9 0 -7 9 -22 20 -34
12 -13 20 -17 20 -9 0 11 3 11 18 0 15 -13 16 -12 3 4 -12 15 -11 17 5 17 11
0 28 7 38 15 17 13 21 13 30 0 16 -20 66 -31 66 -14 0 10 3 10 8 3 10 -16 92
-54 92 -44 0 16 -126 80 -156 80 -16 0 -48 -11 -71 -24z"/>
<path d="M1325 1640 c-11 -5 -41 -9 -67 -9 -27 -1 -48 -5 -48 -11 0 -5 17 -10
39 -10 43 0 101 18 101 31 0 5 -1 9 -2 8 -2 0 -12 -4 -23 -9z"/>
<path d="M1660 1626 c32 -20 109 -31 121 -19 7 7 -10 12 -48 16 -32 3 -67 8
-78 12 -14 4 -12 2 5 -9z"/>
<path d="M1046 1601 c-16 -17 -16 -28 -5 -123 13 -113 21 -138 47 -138 11 -1
28 -25 50 -73 32 -71 33 -74 30 -202 -3 -126 -4 -130 -25 -133 -19 -3 -23 -9
-22 -40 0 -20 5 -46 10 -57 7 -15 8 -9 4 21 -4 37 -1 44 30 73 35 31 35 32 35
116 0 69 3 86 18 94 16 10 16 10 0 11 -17 0 -24 29 -20 83 1 9 -3 17 -9 17 -5
0 -7 5 -4 10 3 6 1 10 -4 10 -6 0 -11 8 -11 19 0 10 -7 24 -15 31 -8 7 -13 16
-10 20 3 5 -4 6 -15 3 -16 -4 -23 2 -31 27 -9 24 -14 29 -21 18 -7 -9 -8 -3
-4 20 3 18 1 32 -4 32 -6 0 -9 32 -8 80 2 44 6 80 11 80 4 0 7 5 7 10 0 16
-15 12 -34 -9z"/>
<path d="M1570 1563 c0 -2 15 -16 33 -33 30 -27 31 -30 16 -45 -13 -13 -21
-15 -37 -6 -28 15 -52 14 -72 -4 -14 -13 -20 -12 -55 6 -31 17 -43 19 -62 10
-33 -15 -43 -14 -44 7 0 11 -2 12 -6 4 -8 -19 26 -52 54 -52 14 0 21 4 18 10
-11 18 25 10 45 -10 16 -16 24 -18 47 -9 14 5 39 7 55 4 35 -8 78 17 78 44 0
31 -33 80 -52 78 -10 -1 -18 -3 -18 -4z"/>
<path d="M1285 1310 c-20 -22 -15 -24 33 -11 52 15 315 17 320 3 2 -7 18 -12
35 -12 l32 1 -23 19 c-20 16 -42 18 -200 20 -167 1 -179 -1 -197 -20z"/>
<path d="M1394 1225 c23 -17 166 -21 166 -5 0 6 -19 10 -42 10 -24 1 -65 3
-93 5 -46 4 -48 3 -31 -10z"/>
<path d="M1267 1085 c-7 -16 61 -91 84 -93 52 -5 78 -10 103 -21 30 -12 70 -6
61 10 -4 5 1 9 9 9 9 0 16 5 16 10 0 15 -26 12 -40 -5 -10 -13 -15 -13 -21 -3
-5 7 -3 16 4 20 7 5 -3 6 -22 3 -30 -5 -33 -4 -28 15 3 12 1 18 -5 14 -5 -3
-8 -15 -5 -25 4 -16 1 -18 -21 -13 -15 4 -30 9 -34 11 -12 7 -9 33 4 33 6 0 8
3 4 7 -4 5 -14 -1 -22 -12 -13 -17 -16 -18 -24 -5 -5 8 -15 15 -22 15 -7 0
-14 10 -16 23 -4 25 -17 29 -25 7z"/>
<path d="M1678 1060 c-9 -17 -24 -30 -31 -30 -14 0 -27 -20 -27 -40 0 -4 9 -6
19 -3 13 3 18 10 14 21 -4 9 -2 13 4 9 16 -10 43 21 43 49 0 31 -1 30 -22 -6z"/>
<path d="M1550 986 c0 -14 35 -15 50 0 5 5 -2 10 -21 11 -18 1 -29 -3 -29 -11z"/>
<path d="M1004 850 c-34 -21 -92 -48 -130 -59 -38 -12 -85 -27 -104 -35 -19
-7 -71 -22 -114 -32 -44 -10 -95 -28 -113 -41 -19 -13 -38 -23 -42 -23 -5 0
-20 -9 -35 -21 -29 -23 -70 -97 -115 -211 -16 -40 -40 -98 -53 -128 -24 -53
-36 -83 -91 -233 -24 -64 -24 -67 -6 -67 11 0 19 7 19 16 0 14 21 69 56 151 8
17 14 38 14 46 0 20 38 105 50 112 6 4 8 11 5 16 -4 5 -2 9 3 9 5 0 21 23 35
50 15 28 21 48 14 44 -9 -6 -9 -4 0 7 7 9 20 35 28 59 16 47 66 129 78 130 4
0 7 -8 8 -17 0 -17 1 -17 7 -1 8 20 112 77 130 71 6 -3 12 0 12 5 0 5 15 12
33 15 44 7 66 13 109 31 21 9 45 16 55 16 10 0 44 13 75 29 48 24 57 26 60 13
2 -10 13 0 32 29 l29 44 15 -43 c7 -23 18 -42 23 -42 4 0 4 12 -2 27 -5 15 -8
38 -4 50 8 32 -8 28 -81 -17z"/>
<path d="M1849 824 c-12 -27 -24 -52 -26 -56 -2 -5 -2 -8 1 -8 9 0 58 101 52
107 -3 3 -15 -17 -27 -43z"/>
<path d="M1178 745 c6 -11 25 -33 43 -50 36 -33 21 -8 -24 40 -18 19 -25 22
-19 10z"/>
<path d="M1568 474 c-26 -24 -56 -44 -68 -44 -27 0 -70 22 -94 49 -11 12 -24
21 -30 21 -22 0 73 -78 103 -85 34 -7 63 9 115 64 46 48 26 45 -26 -5z"/>
</g>
</svg>
